# xmcd CD database file
#
# Track frame offsets:
#	150
#	26825
#	57220
#	87062
#	118890
#	139247
#	165575
#	185502
#	218452
#	236412
#	267925
#
# Disc length: 4045 seconds
#
# Revision: 0
# Processed by: cddbd v1.5PL3 Copyright (c) Steve Scherf et al.
# Submitted via: CDex 1.60beta1
#
DISCID=940fcb0b
DTITLE=Eddie Miller - Eddie Miller with Alex Welsh
DYEAR=1998
DGENRE=Jazz
TTITLE0=Oh Baby
TTITLE1=Keeping Out of Mischief Now
TTITLE2=Little Girl Blue
TTITLE3=Dippermouth Blues
TTITLE4=Sophisticated Lady
TTITLE5=I Got Rhythm
TTITLE6=Body and Soul
TTITLE7=Louisiana
TTITLE8=Emmaline
TTITLE9=That's A Plenty
TTITLE10=Beale Street Blues
EXTD=YEAR: 1998
EXTT0=
EXTT1=
EXTT2=
EXTT3=
EXTT4=
EXTT5=
EXTT6=
EXTT7=
EXTT8=
EXTT9=
EXTT10=
PLAYORDER=
